<svg xmlns="http://www.w3.org/2000/svg" version="1.1" xmlns:xlink="http://www.w3.org/1999/xlink" viewBox="0 0 200 200"><rect width="200" height="200" fill="url('#gradient')"></rect><defs><linearGradient id="gradient" gradientTransform="rotate(224 0.5 0.5)"><stop offset="0%" stop-color="#8ee3eb"></stop><stop offset="100%" stop-color="#f1f8e7"></stop></linearGradient></defs><g><g fill="#1a2c2d" transform="matrix(1.3654344766278983,0,0,1.3654344766278983,8.534069329890968,107.32676647246188)" stroke="#1b5f6f" stroke-width="0.6"><path d="M6.85 0L1.07 0L1.07-14.22L6.18-14.22Q8.93-14.22 10.36-13.21Q11.79-12.21 11.79-10.29L11.79-10.29Q11.79-9.19 11.28-8.41Q10.77-7.63 9.79-7.26L9.79-7.26Q10.90-6.96 11.49-6.16Q12.09-5.36 12.09-4.21L12.09-4.21Q12.09-2.12 10.77-1.07Q9.44-0.02 6.85 0L6.85 0ZM6.90-6.04L4.50-6.04L4.50-2.64L6.75-2.64Q7.68-2.64 8.17-3.06Q8.67-3.49 8.67-4.26L8.67-4.26Q8.67-6.04 6.90-6.04L6.90-6.04ZM4.50-11.57L4.50-8.29L6.29-8.29Q7.41-8.30 7.89-8.70Q8.37-9.10 8.37-9.88L8.37-9.88Q8.37-10.78 7.85-11.18Q7.33-11.57 6.18-11.57L6.18-11.57L4.50-11.57ZM18.94 0.20L18.94 0.20Q16.50 0.20 15-1.25Q13.50-2.71 13.50-5.03L13.50-5.03L13.50-5.30Q13.50-6.92 14.10-8.16Q14.70-9.40 15.85-10.08Q17.00-10.76 18.58-10.76L18.58-10.76Q20.81-10.76 22.10-9.38Q23.39-8.00 23.39-5.53L23.39-5.53L23.39-4.25L16.85-4.25Q17.02-3.36 17.62-2.85Q18.21-2.34 19.16-2.34L19.16-2.34Q20.72-2.34 21.60-3.44L21.60-3.44L23.11-1.66Q22.49-0.81 21.36-0.31Q20.23 0.20 18.94 0.20ZM18.56-8.22L18.56-8.22Q17.12-8.22 16.85-6.31L16.85-6.31L20.17-6.31L20.17-6.56Q20.19-7.35 19.77-7.79Q19.35-8.22 18.56-8.22ZM27.14-10.57L28.81-4.61L30.57-10.57L34.09-10.57L29.79 1.77L29.60 2.22Q28.68 4.27 26.36 4.27L26.36 4.27Q25.71 4.27 25 4.07L25 4.07L25 1.72L25.43 1.72Q26.12 1.72 26.49 1.52Q26.86 1.32 27.03 0.80L27.03 0.80L27.29 0.10L23.62-10.57L27.14-10.57ZM34.39-4.82L34.38-5.38Q34.38-6.96 35-8.20Q35.62-9.43 36.77-10.10Q37.92-10.76 39.47-10.76L39.47-10.76Q41.85-10.76 43.21-9.29Q44.58-7.82 44.58-5.29L44.58-5.29L44.58-5.18Q44.58-2.71 43.21-1.25Q41.84 0.20 39.49 0.20L39.49 0.20Q37.24 0.20 35.87-1.16Q34.50-2.51 34.39-4.82L34.39-4.82ZM37.69-5.77L37.68-5.18Q37.68-3.71 38.13-3.03Q38.59-2.34 39.49-2.34L39.49-2.34Q41.25-2.34 41.29-5.05L41.29-5.05L41.29-5.38Q41.29-8.22 39.47-8.22L39.47-8.22Q37.82-8.22 37.69-5.77L37.69-5.77ZM45.97-10.57L49.05-10.57L49.16-9.33Q50.25-10.76 52.18-10.76L52.18-10.76Q53.83-10.76 54.64-9.78Q55.46-8.79 55.49-6.81L55.49-6.81L55.49 0L52.19 0L52.19-6.67Q52.19-7.47 51.87-7.85Q51.54-8.22 50.69-8.22L50.69-8.22Q49.73-8.22 49.26-7.46L49.26-7.46L49.26 0L45.97 0L45.97-10.57ZM56.89-5.36L56.89-5.36Q56.89-7.87 57.98-9.32Q59.06-10.76 61.01-10.76L61.01-10.76Q62.42-10.76 63.39-9.65L63.39-9.65L63.39-15L66.69-15L66.69 0L63.73 0L63.56-1.13Q62.55 0.20 60.99 0.20L60.99 0.20Q59.10 0.20 58.00-1.25Q56.89-2.70 56.89-5.36ZM60.20-5.76L60.19-5.16Q60.19-2.34 61.83-2.34L61.83-2.34Q62.92-2.34 63.39-3.26L63.39-3.26L63.39-7.29Q62.94-8.22 61.85-8.22L61.85-8.22Q60.32-8.22 60.20-5.76L60.20-5.76ZM81.79-4.81L85.20-4.81Q85.13-3.33 84.39-2.19Q83.66-1.05 82.34-0.43Q81.02 0.20 79.32 0.20L79.32 0.20Q76.51 0.20 74.90-1.63Q73.29-3.46 73.29-6.79L73.29-6.79L73.29-7.49Q73.29-9.58 74.02-11.15Q74.75-12.71 76.11-13.57Q77.48-14.42 79.28-14.42L79.28-14.42Q81.87-14.42 83.44-13.06Q85.01-11.70 85.22-9.31L85.22-9.31L81.81-9.31Q81.77-10.61 81.15-11.17Q80.54-11.74 79.28-11.74L79.28-11.74Q78.00-11.74 77.40-10.78Q76.81-9.82 76.78-7.72L76.78-7.72L76.78-6.72Q76.78-4.44 77.35-3.47Q77.92-2.49 79.32-2.49L79.32-2.49Q80.50-2.49 81.12-3.05Q81.75-3.60 81.79-4.81L81.79-4.81ZM95.91 0L92.62 0Q92.44-0.32 92.30-0.95L92.30-0.95Q91.40 0.20 89.77 0.20L89.77 0.20Q88.27 0.20 87.23-0.71Q86.18-1.61 86.18-2.98L86.18-2.98Q86.18-4.70 87.45-5.58Q88.72-6.46 91.14-6.46L91.14-6.46L92.16-6.46L92.16-7.01Q92.16-8.47 90.90-8.47L90.90-8.47Q89.73-8.47 89.73-7.31L89.73-7.31L86.44-7.31Q86.44-8.85 87.74-9.80Q89.04-10.76 91.06-10.76Q93.09-10.76 94.26-9.78Q95.43-8.79 95.46-7.07L95.46-7.07L95.46-2.39Q95.48-0.94 95.91-0.17L95.91-0.17L95.91 0ZM90.56-2.15L90.56-2.15Q91.17-2.15 91.58-2.41Q91.98-2.68 92.16-3.01L92.16-3.01L92.16-4.70L91.20-4.70Q89.48-4.70 89.48-3.15L89.48-3.15Q89.48-2.71 89.79-2.43Q90.09-2.15 90.56-2.15ZM103.73-10.64L103.67-7.59L102.59-7.67Q101.04-7.67 100.60-6.69L100.60-6.69L100.60 0L97.30 0L97.30-10.57L100.39-10.57L100.50-9.21Q101.33-10.76 102.81-10.76L102.81-10.76Q103.34-10.76 103.73-10.64L103.73-10.64ZM109.79 0.20L109.79 0.20Q107.35 0.20 105.85-1.25Q104.35-2.71 104.35-5.03L104.35-5.03L104.35-5.30Q104.35-6.92 104.95-8.16Q105.55-9.40 106.70-10.08Q107.85-10.76 109.43-10.76L109.43-10.76Q111.66-10.76 112.95-9.38Q114.24-8.00 114.24-5.53L114.24-5.53L114.24-4.25L107.70-4.25Q107.87-3.36 108.47-2.85Q109.06-2.34 110.01-2.34L110.01-2.34Q111.57-2.34 112.45-3.44L112.45-3.44L113.96-1.66Q113.34-0.81 112.21-0.31Q111.08 0.20 109.79 0.20ZM109.41-8.22L109.41-8.22Q107.97-8.22 107.70-6.31L107.70-6.31L111.02-6.31L111.02-6.56Q111.04-7.35 110.62-7.79Q110.20-8.22 109.41-8.22ZM120.67 0.20L120.67 0.20Q118.24 0.20 116.74-1.25Q115.23-2.71 115.23-5.03L115.23-5.03L115.23-5.30Q115.23-6.92 115.83-8.16Q116.44-9.40 117.59-10.08Q118.74-10.76 120.32-10.76L120.32-10.76Q122.55-10.76 123.84-9.38Q125.13-8.00 125.13-5.53L125.13-5.53L125.13-4.25L118.58-4.25Q118.76-3.36 119.36-2.85Q119.95-2.34 120.90-2.34L120.90-2.34Q122.46-2.34 123.34-3.44L123.34-3.44L124.84-1.66Q124.23-0.81 123.10-0.31Q121.97 0.20 120.67 0.20ZM120.30-8.22L120.30-8.22Q118.86-8.22 118.58-6.31L118.58-6.31L121.90-6.31L121.90-6.56Q121.92-7.35 121.50-7.79Q121.08-8.22 120.30-8.22ZM132.90-10.64L132.84-7.59L131.76-7.67Q130.21-7.67 129.77-6.69L129.77-6.69L129.77 0L126.47 0L126.47-10.57L129.56-10.57L129.67-9.21Q130.50-10.76 131.98-10.76L131.98-10.76Q132.51-10.76 132.90-10.64L132.90-10.64Z"></path></g></g></svg>